<svg width="100" height="80" xmlns="http://www.w3.org/2000/svg" xmlns:xlink="http://www.w3.org/1999/xlink" xml:space="preserve" overflow="hidden"><g transform="translate(-1082 -80)"><g><g><g><g><path d="M97.7459 34.7729C95.6852 17.4366 82.0346 5.79491 65.2861 1.7772 59.9614 0.50135 54.4708-0.00345758 49.0078-0.00345758 43.5448-0.00345758 38.0542 0.497892 32.7295 1.7772 15.9775 5.79837 2.3235 17.4366 0.266234 34.7729 0.0691517 36.4429 0 37.826 0 39.9385 0 42.0511 0.0656941 43.4342 0.266234 45.1042 2.32695 62.4405 15.9775 74.0822 32.726 78.0999 38.0507 79.3757 43.531 79.8806 49.0043 79.8806 54.4777 79.8806 59.958 79.3792 65.2826 78.0999 82.0312 74.0822 95.6852 62.444 97.7424 45.1042 97.9395 43.4342 98.0087 42.0511 98.0087 39.9385 98.0087 37.826 97.943 36.4429 97.7424 34.7729ZM13.8684 19.8949C13.896 19.8396 13.941 19.7635 13.9756 19.7151 18.2215 13.3808 26.3226 8.13569 35.3158 5.84677 39.7933 4.70577 44.4092 4.25629 49.0078 4.25629 53.6064 4.25629 58.2188 4.70577 62.6998 5.84677 71.6895 8.13569 79.7907 13.3808 84.04 19.7151 84.0746 19.7635 84.1161 19.8396 84.1472 19.8949 84.1749 19.9468 84.1714 19.9987 84.1057 20.0367 84.0642 20.0609 83.9985 20.0989 83.9501 20.1197 82.6293 20.7766 80.1917 21.9833 78.456 22.8408 67.9069 28.0583 60.4662 31.8443 58.855 33.2758 56.853 35.053 53.8899 39.4994 49.0078 46.7811 44.1257 39.496 41.1625 35.0495 39.1606 33.2758 37.5494 31.8443 30.1086 28.0583 19.5595 22.8408 17.8238 21.9833 15.3862 20.7766 14.0654 20.1197 14.017 20.0955 13.9548 20.0609 13.9099 20.0367 13.8476 19.9987 13.8442 19.9468 13.8684 19.8949ZM90.0113 44.5544C88.279 60.0444 76.7895 70.4448 62.6964 74.0338 58.2188 75.1748 53.6029 75.6243 49.0043 75.6243 44.4057 75.6243 39.7933 75.1748 35.3123 74.0338 21.2192 70.4448 9.72964 60.0444 7.99739 44.5544 7.83143 43.0642 7.77265 41.8264 7.77265 39.9385 7.77265 38.0507 7.82451 37.0169 7.98356 35.6892 8.21176 33.7564 8.72348 31.2704 9.28707 29.9669 9.3009 29.9323 9.3251 29.8839 9.34239 29.8528 9.37351 29.7975 9.42883 29.7836 9.47724 29.7975 9.51873 29.8113 9.58096 29.8355 9.62245 29.8528 10.7738 30.323 12.6478 31.1044 15.528 32.3561 28.8397 38.1406 36.7161 41.9543 38.6281 43.5448 40.2601 44.9002 44.2017 50.4185 48.3266 56.1823L49.6716 56.1823C53.7965 50.4185 57.7382 44.9002 59.3702 43.5448 61.2857 41.9543 69.1586 38.1406 82.4703 32.3561 85.3504 31.1044 87.2245 30.323 88.3758 29.8528 88.4173 29.8355 88.4796 29.8113 88.521 29.7975 88.5695 29.7802 88.6248 29.7975 88.6559 29.8528 88.6732 29.8839 88.6974 29.9323 88.7112 29.9669 89.2748 31.2704 89.7831 33.7564 90.0147 35.6892 90.1738 37.0169 90.2256 38.0887 90.2256 39.9385 90.2256 41.7884 90.1703 43.0607 90.0009 44.5544Z" fill="#FFFFFF" fill-rule="nonzero" fill-opacity="1" transform="matrix(1.01011 0 0 1 1083 80.0615)"/></g></g></g></g></g></svg>